<?xml version="1.0" encoding="UTF-8" standalone="no"?>
<!-- Created with Inkscape (http://www.inkscape.org/) -->

<svg
   xmlns:dc="http://purl.org/dc/elements/1.1/"
   xmlns:cc="http://creativecommons.org/ns#"
   xmlns:rdf="http://www.w3.org/1999/02/22-rdf-syntax-ns#"
   xmlns:svg="http://www.w3.org/2000/svg"
   xmlns="http://www.w3.org/2000/svg"
   xmlns:sodipodi="http://sodipodi.sourceforge.net/DTD/sodipodi-0.dtd"
   xmlns:inkscape="http://www.inkscape.org/namespaces/inkscape"
   width="1000"
   height="1000"
   viewBox="0 0 264.58333 264.58334"
   version="1.1"
   id="svg1761"
   inkscape:version="0.92.3 (2405546, 2018-03-11)"
   sodipodi:docname="Pot.svg"
   inkscape:export-filename="D:\P22\Mine\Pic &amp; Vid\Ink\Ink Pon\Pot.png"
   inkscape:export-xdpi="147.99001"
   inkscape:export-ydpi="147.99001">
  <defs
     id="defs1755" />
  <sodipodi:namedview
     id="base"
     pagecolor="#c2c2c2"
     bordercolor="#666666"
     borderopacity="1.0"
     inkscape:pageopacity="0"
     inkscape:pageshadow="2"
     inkscape:zoom="0.25"
     inkscape:cx="624.88986"
     inkscape:cy="309.06624"
     inkscape:document-units="px"
     inkscape:current-layer="layer4"
     showgrid="false"
     units="px"
     inkscape:window-width="1366"
     inkscape:window-height="705"
     inkscape:window-x="-8"
     inkscape:window-y="-8"
     inkscape:window-maximized="1"
     inkscape:snap-global="true"
     showguides="false"
     inkscape:snap-smooth-nodes="true"
     inkscape:object-nodes="true"
     inkscape:guide-bbox="true">
    <sodipodi:guide
       position="66.146439,178.094"
       orientation="0,1"
       inkscape:locked="false"
       id="guide828" />
    <sodipodi:guide
       position="66.146439,73.221496"
       orientation="0,1"
       inkscape:locked="false"
       id="guide830" />
    <sodipodi:guide
       position="98.968796,124.72047"
       orientation="0,1"
       inkscape:locked="false"
       id="guide832" />
    <sodipodi:guide
       position="98.360563,154.70154"
       orientation="0,1"
       inkscape:locked="false"
       id="guide834" />
    <sodipodi:guide
       position="216.34819,104.59176"
       orientation="1,0"
       inkscape:locked="false"
       id="guide838" />
    <sodipodi:guide
       position="222.91146,135.33438"
       orientation="0,1"
       inkscape:locked="false"
       id="guide840" />
    <sodipodi:guide
       position="216.34819,147.54267"
       orientation="0,1"
       inkscape:locked="false"
       id="guide842" />
    <sodipodi:guide
       position="216.34819,95.380885"
       orientation="0.36535382,-0.93086873"
       inkscape:locked="false"
       id="guide846" />
  </sodipodi:namedview>
  <metadata
     id="metadata1758">
    <rdf:RDF>
      <cc:Work
         rdf:about="">
        <dc:format>image/svg+xml</dc:format>
        <dc:type
           rdf:resource="http://purl.org/dc/dcmitype/StillImage" />
        <dc:title />
      </cc:Work>
    </rdf:RDF>
  </metadata>
  <g
     inkscape:groupmode="layer"
     id="layer4"
     inkscape:label="Pot"
     style="display:inline">
    <path
       style="color:#000000;font-style:normal;font-variant:normal;font-weight:normal;font-stretch:normal;font-size:medium;line-height:normal;font-family:sans-serif;font-variant-ligatures:normal;font-variant-position:normal;font-variant-caps:normal;font-variant-numeric:normal;font-variant-alternates:normal;font-feature-settings:normal;text-indent:0;text-align:start;text-decoration:none;text-decoration-line:none;text-decoration-style:solid;text-decoration-color:#000000;letter-spacing:normal;word-spacing:normal;text-transform:none;writing-mode:lr-tb;direction:ltr;text-orientation:mixed;dominant-baseline:auto;baseline-shift:baseline;text-anchor:start;white-space:normal;shape-padding:0;clip-rule:nonzero;display:inline;overflow:visible;visibility:visible;opacity:1;isolation:auto;mix-blend-mode:normal;color-interpolation:sRGB;color-interpolation-filters:linearRGB;solid-color:#000000;solid-opacity:1;vector-effect:none;fill:#ffffff;fill-opacity:1;fill-rule:nonzero;stroke:none;stroke-width:13;stroke-linecap:butt;stroke-linejoin:miter;stroke-miterlimit:20;stroke-dasharray:none;stroke-dashoffset:0;stroke-opacity:1;color-rendering:auto;image-rendering:auto;shape-rendering:auto;text-rendering:auto;enable-background:accumulate"
       d="M 175.80664 295.3125 L 175.80664 301.81641 L 175.80664 704.68164 L 256.50586 704.68164 L 256.50586 579.62695 C 309.83433 606.94852 376.57931 600.67927 423.42578 558.92773 L 428.2832 554.60938 L 374.58008 494.36523 L 369.72852 498.69141 C 342.33373 523.10674 301.84124 521.82418 276.03906 495.73047 C 264.36008 483.91952 257.89078 469.1664 256.50586 454.00781 L 256.50586 441.7832 C 257.80321 427.51337 263.60993 413.55494 274.13477 402.00977 C 298.85666 374.89064 339.26997 371.96458 367.63281 395.24805 L 372.65234 399.375 L 423.86133 337.01367 L 418.83398 332.88672 C 388.38222 307.88843 350.54233 297.00081 313.73047 299.66016 C 293.91005 301.09213 274.47146 306.69112 256.50586 315.87891 L 256.50586 295.3125 L 175.80664 295.3125 z M 669.19141 295.3125 L 669.19141 301.81641 L 669.19141 380.46289 L 669.19141 441.62891 L 669.19141 604.79102 C 669.19141 636.20645 678.29591 661.57115 696.8125 679.33398 C 704.85409 687.36246 715.15212 693.64529 727.47852 698.26758 L 727.55859 698.29883 L 727.64844 698.32812 C 740.0485 702.59064 753.52746 704.68359 767.99023 704.68359 C 786.23473 704.68359 803.65846 701.44114 820.08398 694.94727 L 824.19531 693.32422 L 824.19531 604.90234 L 815.32227 608.38086 C 805.50918 612.23235 787.33899 616.43647 773.16406 614.93555 C 766.07658 614.18508 760.17582 612.08511 756.28906 608.63867 C 752.40231 605.1922 749.88867 600.38495 749.88867 591.68164 L 749.88867 488.2168 L 824.19531 488.2168 L 824.19531 407.52539 L 749.88867 407.52539 L 749.88867 295.3125 L 669.19141 295.3125 z M 531.28906 332.94531 C 467.89803 332.94563 416.36772 384.47608 416.36719 447.86719 C 416.36568 511.25965 467.8966 562.78673 531.28906 562.78711 C 594.68157 562.78673 646.21245 511.25965 646.21094 447.86719 C 646.21041 384.47608 594.68013 332.94563 531.28906 332.94531 z "
       transform="scale(0.26458333)"
       id="path839" />
  </g>
  <g
     inkscape:groupmode="layer"
     id="layer5"
     inkscape:label="pot only-outline"
     style="display:none">
    <path
       id="path857"
       d="M 140.57027,89.812483 C 156.41305,89.812563 169.25615,102.65564 169.25628,118.49843 169.25666,134.34157 156.41341,147.18522 140.57027,147.18531 124.72713,147.18522 111.88388,134.34157 111.88426,118.49843 111.88439,102.65564 124.72749,89.812563 140.57027,89.812483 Z"
       style="display:inline;opacity:1;fill:none;fill-opacity:1;stroke:#ffffff;stroke-width:3.4395833;stroke-linecap:butt;stroke-linejoin:round;stroke-miterlimit:20;stroke-dasharray:none;stroke-dashoffset:0;stroke-opacity:1"
       inkscape:connector-curvature="0" />
    <path
       id="path859"
       d="M 178.77681,79.855413 H 196.6881 V 109.54326 H 216.34819 V 127.45454 H 196.6881 V 156.5498 C 196.6881,167.2572 210.66293,164.79991 216.34819,162.56852 V 182.27135 C 212.20576,183.90907 207.82233,184.72791 203.19816,184.72791 199.53737,184.72791 196.16507,184.19847 193.08232,183.13878 189.9995,181.98275 187.4954,180.44129 185.56874,178.51459 181.0409,174.17943 178.77681,168.01363 178.77681,160.01773 V 116.84826 100.66395 Z"
       style="display:inline;opacity:1;fill:none;fill-opacity:1;stroke:#ffffff;stroke-width:3.4395833;stroke-linecap:butt;stroke-linejoin:round;stroke-miterlimit:20;stroke-dasharray:none;stroke-dashoffset:0;stroke-opacity:1"
       inkscape:connector-curvature="0" />
    <path
       id="path861"
       d="M 48.235155,79.855413 H 66.146439 V 86.433533 C 71.343161,83.256723 77.18741,81.430743 83.132667,81.001213 92.452243,80.327953 102.01959,83.079393 109.72609,89.405773 L 98.360564,103.24787 C 90.175551,96.528673 78.394355,97.381083 71.260196,105.20703 68.213763,108.54879 66.51636,112.61694 66.146439,116.76796 V 120.22979 C 66.538418,124.64359 68.42891,128.94921 71.812581,132.37111 79.258411,139.90107 91.063217,140.27471 98.968797,133.22894 L 110.88755,146.59977 C 98.299786,157.81851 79.980997,159.0323 66.146439,150.5677 V 184.72791 H 48.235155 Z"
       style="display:inline;opacity:1;fill:none;fill-opacity:1;stroke:#ffffff;stroke-width:3.4395833;stroke-linecap:butt;stroke-linejoin:round;stroke-miterlimit:20;stroke-dasharray:none;stroke-dashoffset:0;stroke-opacity:1"
       inkscape:connector-curvature="0" />
  </g>
</svg>
